<svg xmlns="http://www.w3.org/2000/svg" viewBox="0 0 1777.05 972">
  <defs>
    <style>
      .cls-1 {
        fill: #c59b37;
      }

      .cls-2 {
        fill: #bf8d1e;
      }

      .cls-3 {
        fill: #916312;
      }

      .cls-4 {
        fill: #26282d;
      }

      .cls-5 {
        fill: #212122;
      }

      .cls-6 {
        fill: #111314;
      }

      .cls-7 {
        fill: #26292d;
      }
    </style>
  </defs>
  <g id="Слой_2" data-name="Слой 2">
    <g id="Слой_5" data-name="Слой 5">
      <g>
        <polygon class="cls-1" points="734.1 109.02 516.07 218.03 298.04 109.02 516.07 0 734.1 109.02"/>
        <polygon class="cls-2" points="734.1 242.03 516.07 351.05 516.07 218.03 734.1 109.02 734.1 242.03"/>
        <polygon class="cls-3" points="298.04 242.03 516.07 351.05 516.07 218.03 298.04 109.02 298.04 242.03"/>
        <polygon class="cls-4" points="434.45 258.66 217.03 367.68 0 258.66 217.03 149.65 434.45 258.66"/>
        <polygon class="cls-5" points="434.45 535.08 217.03 645.09 217.03 367.68 434.45 258.66 434.45 535.08"/>
        <polygon class="cls-6" points="0 712.73 217.03 822.12 217.03 367.68 0 258.66 0 712.73"/>
        <polygon class="cls-5" points="734.05 863.01 515.46 972 515.46 794.97 734.05 685.96 734.05 863.01"/>
        <polygon class="cls-6" points="217.03 822.12 515.46 972 515.46 794.97 217.03 645.09 217.03 822.12"/>
        <polygon class="cls-7" points="734.05 685.96 515.46 794.97 217.03 645.09 434.45 535.08 734.05 685.96"/>
      </g>
      <g>
        <path class="cls-7" d="M1010.55,299.22v40.87q0,37.37-18.24,57.36t-53.84,20q-35.6,0-53.84-20t-18.24-57.36v-160q0-37.35,18.24-57.36t53.84-20q35.61,0,53.84,20t18.24,57.36V210H964.84V177q0-16.69-6.81-23.51t-18.24-6.82q-11.43,0-18.24,6.82T914.74,177V343.17q0,16.71,6.81,23.29t18.24,6.6q11.43,0,18.24-6.6t6.81-23.29V299.22Z"/>
        <path class="cls-7" d="M1091,413.93h-49.67V106.27h43.08V290.43l49.66-184.16h60.66V413.93h-43.52V191.09Z"/>
        <path class="cls-7" d="M1216.68,106.27h149.43v44h-50.54V413.93h-48.35V150.22h-50.54Z"/>
        <path class="cls-7" d="M1436.43,235.93h66.37v43.95h-66.37V370h83.51v43.95H1388.08V106.27h131.86v44h-83.51Z"/>
        <path class="cls-7" d="M1611.79,291.3l-14.94,28.13v94.5H1548.5V106.27h48.35V240.32l64.17-134h47.47L1641.24,243.4l67.25,170.53h-49.67Z"/>
        <path class="cls-1" d="M1777.05,367.34v46.59h-46.59V367.34Z"/>
        <path class="cls-7" d="M919.13,802.11H870.79V494.45h127.9V538.4H919.13Z"/>
        <path class="cls-7" d="M1091.86,494.45q36.48,0,54.28,19.34t17.8,56.69v40q0,37.37-17.8,56.7t-54.28,19.34H1069V802.11h-48.35V494.45ZM1069,538.4V642.57h22.85q11.43,0,17.58-6.16t6.15-22.85V567.41q0-16.7-6.15-22.86t-17.58-6.15Z"/>
        <path class="cls-7" d="M1199.1,758.16a76.46,76.46,0,0,0,8.35.44h8.35a42.49,42.49,0,0,0,10.77-1.32,20.06,20.06,0,0,0,8.79-4.83,22.38,22.38,0,0,0,5.71-10.11,59.2,59.2,0,0,0,2-16.71l-70.32-231.18h48.35l53.18,180.2,44-180.2h48.35l-63.29,226.79q-8.36,31.65-16.93,48.57T1268.1,794a39.38,39.38,0,0,1-20.87,8.13q-11.2.87-24.84.88h-11.86a82,82,0,0,1-11.43-.88Z"/>
        <path class="cls-7" d="M1436.88,802.11h-48.35V494.45H1541V802.11h-49.22V538.4h-54.94Z"/>
        <path class="cls-7" d="M1624.55,802.11H1576.2V494.45h152.51V802.11h-49.22V538.4h-54.94Z"/>
      </g>
    </g>
  </g>
</svg>
