<svg xmlns="http://www.w3.org/2000/svg" viewBox="0 0 1810.3 972">
  <defs>
    <style>
      .cls-1 {
        fill: #c59b37;
      }

      .cls-2 {
        fill: #bf8d1e;
      }

      .cls-3 {
        fill: #916312;
      }

      .cls-4 {
        fill: #26282d;
      }

      .cls-5 {
        fill: #212122;
      }

      .cls-6 {
        fill: #111314;
      }

      .cls-7 {
        fill: #26292d;
      }

      .cls-8 {
        fill: #fff;
      }
    </style>
  </defs>
  <g id="Слой_2" data-name="Слой 2">
    <g id="Слой_3" data-name="Слой 3">
      <g>
        <polygon class="cls-1" points="734.1 109.02 516.07 218.03 298.04 109.02 516.07 0 734.1 109.02"/>
        <polygon class="cls-2" points="734.1 242.03 516.07 351.05 516.07 218.03 734.1 109.02 734.1 242.03"/>
        <polygon class="cls-3" points="298.04 242.03 516.07 351.05 516.07 218.03 298.04 109.02 298.04 242.03"/>
        <polygon class="cls-4" points="434.45 258.66 217.03 367.68 0 258.66 217.03 149.65 434.45 258.66"/>
        <polygon class="cls-5" points="434.45 535.08 217.03 645.09 217.03 367.68 434.45 258.66 434.45 535.08"/>
        <polygon class="cls-6" points="0 712.73 217.03 822.12 217.03 367.68 0 258.66 0 712.73"/>
        <polygon class="cls-5" points="734.05 863.01 515.46 972 515.46 794.97 734.05 685.96 734.05 863.01"/>
        <polygon class="cls-6" points="217.03 822.12 515.46 972 515.46 794.97 217.03 645.09 217.03 822.12"/>
        <polygon class="cls-7" points="734.05 685.96 515.46 794.97 217.03 645.09 434.45 535.08 734.05 685.96"/>
      </g>
      <g>
        <path class="cls-8" d="M1043.81,299.22v40.87q0,37.37-18.24,57.36t-53.84,20q-35.61,0-53.84-20t-18.24-57.36v-160q0-37.35,18.24-57.36t53.84-20q35.6,0,53.84,20t18.24,57.36V210H998.1V177q0-16.69-6.81-23.51t-18.24-6.82q-11.44,0-18.24,6.82T948,177V343.17q0,16.71,6.82,23.29t18.24,6.6q11.41,0,18.24-6.6t6.81-23.29V299.22Z"/>
        <path class="cls-8" d="M1124.24,413.93h-49.67V106.27h43.07V290.43l49.67-184.16H1228V413.93h-43.51V191.1Z"/>
        <path class="cls-8" d="M1249.93,106.27h149.44v44h-50.55V413.93h-48.34V150.22h-50.55Z"/>
        <path class="cls-8" d="M1469.68,235.93h66.37v43.95h-66.37V370h83.51v43.95H1421.34V106.27h131.85v44h-83.51Z"/>
        <path class="cls-8" d="M1645.05,291.31l-15,28.12v94.5h-48.34V106.27h48.34V240.32l64.17-134h47.47L1674.5,243.4l67.24,170.53h-49.66Z"/>
        <path class="cls-1" d="M1810.3,367.34v46.59h-46.59V367.34Z"/>
        <path class="cls-8" d="M952.39,802.11H904V494.45h127.9V538.4H952.39Z"/>
        <path class="cls-8" d="M1125.12,494.45q36.47,0,54.28,19.34t17.8,56.69v40q0,37.37-17.8,56.7t-54.28,19.34h-22.86V802.11h-48.35V494.45Zm-22.86,43.95V642.57h22.86q11.42,0,17.58-6.16t6.15-22.85V567.41q0-16.7-6.15-22.86t-17.58-6.15Z"/>
        <path class="cls-8" d="M1232.36,758.16a76.19,76.19,0,0,0,8.35.44h8.35a42.47,42.47,0,0,0,10.76-1.32,20,20,0,0,0,8.79-4.83,22.48,22.48,0,0,0,5.72-10.11,59.17,59.17,0,0,0,2-16.7L1206,494.45h48.35l53.18,180.2,44-180.2h48.35l-63.29,226.79q-8.36,31.65-16.92,48.57T1301.36,794a39.44,39.44,0,0,1-20.88,8.13q-11.2.87-24.83.88h-11.87a81.9,81.9,0,0,1-11.42-.88Z"/>
        <path class="cls-8" d="M1470.13,802.11h-48.34V494.45H1574.3V802.11h-49.23V538.4h-54.94Z"/>
        <path class="cls-8" d="M1657.8,802.11h-48.34V494.45H1762V802.11h-49.23V538.4H1657.8Z"/>
      </g>
    </g>
  </g>
</svg>
