<svg xmlns="http://www.w3.org/2000/svg" viewBox="0 0 1778.22 972">
  <defs>
    <style>
      .cls-1 {
        fill: #306dcf;
      }

      .cls-2 {
        fill: #275ec0;
      }

      .cls-3 {
        fill: #173c9b;
      }

      .cls-4 {
        fill: #26282d;
      }

      .cls-5 {
        fill: #212122;
      }

      .cls-6 {
        fill: #111314;
      }

      .cls-7 {
        fill: #26292d;
      }

      .cls-8 {
        fill: #fff;
      }
    </style>
  </defs>
  <g id="Слой_2" data-name="Слой 2">
    <g id="Слой_9" data-name="Слой 9">
      <g>
        <g>
          <polygon class="cls-1" points="734.1 109.02 516.07 218.03 298.04 109.02 516.07 0 734.1 109.02"/>
          <polygon class="cls-2" points="734.1 242.03 516.07 351.05 516.07 218.03 734.1 109.02 734.1 242.03"/>
          <polygon class="cls-3" points="298.04 242.03 516.07 351.05 516.07 218.03 298.04 109.02 298.04 242.03"/>
          <polygon class="cls-4" points="434.45 258.66 217.03 367.68 0 258.66 217.03 149.65 434.45 258.66"/>
          <polygon class="cls-5" points="434.45 535.08 217.03 645.09 217.03 367.68 434.45 258.66 434.45 535.08"/>
          <polygon class="cls-6" points="0 712.73 217.03 822.12 217.03 367.68 0 258.66 0 712.73"/>
          <polygon class="cls-5" points="734.05 863.01 515.46 972 515.46 794.97 734.05 685.96 734.05 863.01"/>
          <polygon class="cls-6" points="217.03 822.12 515.46 972 515.46 794.97 217.03 645.09 217.03 822.12"/>
          <polygon class="cls-7" points="734.05 685.96 515.46 794.97 217.03 645.09 434.45 535.08 734.05 685.96"/>
        </g>
        <g>
          <path class="cls-8" d="M1011.05,299v40.91q0,37.39-18.26,57.41t-53.88,20q-35.64,0-53.89-20t-18.26-57.41V179.76q0-37.38,18.26-57.4t53.89-20q35.63,0,53.88,20t18.26,57.4v29.92H965.3v-33q0-16.71-6.82-23.53t-18.25-6.82q-11.44,0-18.26,6.82t-6.82,23.53V343q0,16.72,6.82,23.31t18.26,6.6q11.43,0,18.25-6.6T965.3,343V299Z"/>
          <path class="cls-8" d="M1091.55,413.79h-49.71V105.86H1085V290.18l49.71-184.32h60.7V413.79h-43.55v-223Z"/>
          <path class="cls-8" d="M1217.35,105.86h149.57v44h-50.59V413.79h-48.39V149.85h-50.59Z"/>
          <path class="cls-8" d="M1437.3,235.63h66.43v44H1437.3V369.8h83.58v44h-132V105.86h132v44H1437.3Z"/>
          <path class="cls-8" d="M1612.82,291.06l-15,28.15v94.58h-48.39V105.86h48.39V240l64.23-134.17h47.51l-67.31,137.25,67.31,170.68h-49.71Z"/>
          <path class="cls-1" d="M1778.22,367.16v46.63h-46.63V367.16Z"/>
          <path class="cls-8" d="M1007.09,538.85H950.78v187.4q0,23.32-5.71,38.27t-15.4,23.54a55.87,55.87,0,0,1-22.22,12.09,96.18,96.18,0,0,1-26.17,3.52H869.4a80.78,80.78,0,0,1-11.44-.88v-44a74.22,74.22,0,0,0,8.36.44h8.36q11.43,0,19.58-5.72t8.13-23.75V494.86h153.09V802.79h-48.39Z"/>
          <path class="cls-8" d="M1246.84,802.79H1198l-8.36-55.87h-59.39l-8.36,55.87h-44.43l49.27-307.93h70.83Zm-110.42-97.66h46.63l-23.31-155.72Z"/>
          <path class="cls-8" d="M1317.22,610.55h22.88q36.51,0,54.33,19.36t17.81,56.75v40q0,37.39-17.81,56.75t-54.33,19.35h-71.27V494.86h128v44h-79.62ZM1340.1,758.8q11.43,0,17.59-6.16t6.16-22.87V683.58q0-16.71-6.16-22.88t-17.59-6.16h-22.88V758.8Z"/>
        </g>
      </g>
    </g>
  </g>
</svg>
