<svg xmlns="http://www.w3.org/2000/svg" viewBox="0 0 1938.78 972">
  <defs>
    <style>
      .cls-1 {
        fill: #30c95d;
      }

      .cls-2 {
        fill: #27bf46;
      }

      .cls-3 {
        fill: #16962b;
      }

      .cls-4 {
        fill: #26282d;
      }

      .cls-5 {
        fill: #212122;
      }

      .cls-6 {
        fill: #111314;
      }

      .cls-7 {
        fill: #26292d;
      }

      .cls-8 {
        fill: #fff;
      }
    </style>
  </defs>
  <g id="Слой_2" data-name="Слой 2">
    <g id="Слой_11" data-name="Слой 11">
      <g>
        <g>
          <polygon class="cls-1" points="734.1 109.02 516.07 218.03 298.04 109.02 516.07 0 734.1 109.02"/>
          <polygon class="cls-2" points="734.1 242.03 516.07 351.05 516.07 218.03 734.1 109.02 734.1 242.03"/>
          <polygon class="cls-3" points="298.04 242.03 516.07 351.05 516.07 218.03 298.04 109.02 298.04 242.03"/>
          <polygon class="cls-4" points="434.45 258.66 217.03 367.68 0 258.66 217.03 149.65 434.45 258.66"/>
          <polygon class="cls-5" points="434.45 535.08 217.03 645.09 217.03 367.68 434.45 258.66 434.45 535.08"/>
          <polygon class="cls-6" points="0 712.73 217.03 822.12 217.03 367.68 0 258.66 0 712.73"/>
          <polygon class="cls-5" points="734.05 863.01 515.46 972 515.46 794.97 734.05 685.96 734.05 863.01"/>
          <polygon class="cls-6" points="217.03 822.12 515.46 972 515.46 794.97 217.03 645.09 217.03 822.12"/>
          <polygon class="cls-7" points="734.05 685.96 515.46 794.97 217.03 645.09 434.45 535.08 734.05 685.96"/>
        </g>
        <g>
          <path class="cls-8" d="M1016.76,299v40.91q0,37.39-18.26,57.41t-53.89,20q-35.62,0-53.88-20t-18.26-57.41V179.76q0-37.38,18.26-57.4t53.88-20q35.64,0,53.89,20t18.26,57.4v29.92H971v-33q0-16.71-6.82-23.53t-18.26-6.82q-11.45,0-18.25,6.82t-6.82,23.53V343q0,16.72,6.82,23.31t18.25,6.6q11.45,0,18.26-6.6T971,343V299Z"/>
          <path class="cls-8" d="M1097.25,413.79h-49.7V105.86h43.11V290.18l49.7-184.32h60.71V413.79h-43.55v-223Z"/>
          <path class="cls-8" d="M1223.06,105.86h149.57v44H1322V413.79h-48.39V149.85h-50.59Z"/>
          <path class="cls-8" d="M1443,235.63h66.42v44H1443V369.8h83.58v44h-132V105.86h132v44H1443Z"/>
          <path class="cls-8" d="M1618.52,291.06l-15,28.15v94.58h-48.39V105.86h48.39V240l64.22-134.17h47.51L1648,243.11l67.3,170.68h-49.7Z"/>
          <path class="cls-1" d="M1783.92,367.16v46.63h-46.63V367.16Z"/>
          <path class="cls-8" d="M948.13,494.86q36.51,0,54.33,19.36T1020.28,571v40q0,37.39-17.82,56.75T948.13,687.1H925.26V802.79H876.87V494.86Zm-22.87,44V643.11h22.87q11.45,0,17.6-6.16t6.16-22.88V567.88q0-16.71-6.16-22.87t-17.6-6.16Z"/>
          <path class="cls-8" d="M1090.66,624.63h66.42v44h-66.42V758.8h83.58v44h-132V494.86h132v44h-83.58Z"/>
          <path class="cls-8" d="M1305.77,713.49l33-218.63h67.31V802.79h-45.75V582l-33.44,220.83h-45.75L1245.06,585V802.79h-42.23V494.86h67.31Z"/>
          <path class="cls-8" d="M1436.86,568.76q0-37.38,18.91-57.4t54.55-20q35.63,0,54.55,20t18.91,57.4V728.89q0,37.4-18.91,57.41t-54.55,20q-35.64,0-54.55-20t-18.91-57.41ZM1485.25,732q0,16.72,6.81,23.53t18.26,6.82q11.43,0,18.26-6.82T1535.4,732V565.68q0-16.71-6.82-23.53t-18.26-6.82q-11.44,0-18.26,6.82t-6.81,23.53Z"/>
          <path class="cls-8" d="M1663,802.79h-48.39V494.86H1663v132h55v-132h49.27V802.79H1718v-132h-55Z"/>
          <path class="cls-8" d="M1789.21,494.86h149.57v44h-50.59V802.79H1839.8V538.85h-50.59Z"/>
        </g>
      </g>
    </g>
  </g>
</svg>
