<?xml version="1.0" standalone="no"?>
<!DOCTYPE svg PUBLIC "-//W3C//DTD SVG 20010904//EN"
 "http://www.w3.org/TR/2001/REC-SVG-20010904/DTD/svg10.dtd">
<svg version="1.0" xmlns="http://www.w3.org/2000/svg"
 width="1778.000000pt" height="973.000000pt" viewBox="0 0 1778.000000 973.000000"
 preserveAspectRatio="xMidYMid meet">

<g transform="translate(0.000000,973.000000) scale(0.100000,-0.100000)"
fill="#000000" stroke="none">
<path d="M9186 8674 c-194 -43 -345 -154 -426 -314 -31 -62 -68 -193 -79 -285
-15 -120 -15 -1787 -1 -1905 42 -342 212 -542 512 -604 101 -21 304 -21 406 0
243 49 415 216 484 469 20 72 22 110 26 388 l4 307 -225 0 -225 0 -4 -272 c-5
-307 -10 -334 -76 -401 -89 -91 -274 -87 -364 10 -60 64 -58 35 -58 1052 0
1047 -3 998 73 1068 56 52 101 66 191 61 60 -3 82 -9 121 -33 93 -57 114 -138
115 -422 l0 -173 226 0 226 0 -4 253 c-4 219 -7 262 -26 331 -67 243 -219 400
-447 462 -87 24 -357 29 -449 8z"/>
<path d="M10420 7120 l0 -1540 248 0 249 0 11 38 c6 20 140 514 297 1097 158
583 288 1062 291 1064 2 2 4 -491 4 -1097 l0 -1102 220 0 220 0 0 1540 0 1540
-307 -2 -306 -3 -242 -895 c-132 -492 -244 -902 -247 -910 -4 -8 -7 396 -7
898 l-1 912 -215 0 -215 0 0 -1540z"/>
<path d="M12170 8440 l0 -220 255 0 255 0 0 -1320 0 -1320 240 0 240 0 2 1318
3 1317 253 3 252 2 0 220 0 220 -750 0 -750 0 0 -220z"/>
<path d="M13890 7120 l0 -1540 660 0 660 0 0 220 0 220 -420 0 -420 0 0 450 0
450 335 0 335 0 0 220 0 220 -335 0 -335 0 0 430 0 430 420 0 420 0 0 220 0
220 -660 0 -660 0 0 -1540z"/>
<path d="M15490 7120 l0 -1540 245 0 245 0 0 476 0 476 72 134 c67 126 73 134
83 112 6 -13 113 -287 236 -610 l224 -588 248 0 c136 0 247 2 247 5 0 3 -149
385 -332 847 -182 463 -331 847 -331 853 0 7 149 316 331 689 183 372 332 678
332 681 0 3 -107 4 -237 3 l-237 -3 -316 -659 -315 -659 -3 662 -2 661 -245 0
-245 0 0 -1540z"/>
<path d="M2990 8225 l0 -405 -406 203 -406 202 -1084 -544 -1084 -545 0 -2272
0 -2272 722 -365 c398 -201 1557 -784 2576 -1296 l1854 -932 1094 545 1094
545 -2 888 -3 888 -1497 753 -1498 754 0 1119 c0 743 3 1119 10 1119 6 0 190
-90 410 -200 l400 -200 0 665 0 665 -1090 545 -1090 545 0 -405z"/>
<path d="M8720 3240 l0 -1540 240 0 240 0 0 1320 0 1320 395 0 395 0 0 220 0
220 -635 0 -635 0 0 -1540z"/>
<path d="M10218 4774 c-5 -4 -8 -697 -8 -1541 l0 -1533 245 0 245 0 0 579 0
579 213 5 c236 5 282 13 406 73 138 68 244 204 290 374 31 115 41 232 41 505
0 138 -5 291 -10 340 -31 272 -139 451 -330 543 -144 70 -178 74 -660 79 -234
3 -428 1 -432 -3z m827 -464 c54 -27 89 -70 106 -132 6 -25 9 -164 7 -386 -3
-333 -4 -349 -24 -387 -49 -90 -89 -105 -284 -105 l-150 0 0 521 0 521 148 -4
c132 -3 152 -6 197 -28z"/>
<path d="M11740 4769 c0 -6 158 -529 351 -1162 338 -1110 350 -1154 344 -1212
-9 -91 -33 -153 -74 -194 -50 -50 -109 -66 -248 -66 l-113 1 0 -218 0 -217 37
-7 c20 -4 133 -4 252 -1 245 6 308 19 393 82 95 70 188 217 262 419 32 84 726
2549 726 2576 0 6 -94 10 -240 10 l-240 0 -5 -22 c-3 -13 -102 -416 -219 -897
-117 -481 -215 -870 -218 -865 -3 5 -115 378 -248 829 -133 451 -251 850 -262
888 l-20 67 -239 0 c-166 0 -239 -3 -239 -11z"/>
<path d="M13897 4773 c-4 -3 -7 -696 -7 -1540 l0 -1533 245 0 245 0 0 1320 0
1320 273 -2 272 -3 3 -1317 2 -1318 245 0 245 0 0 1540 0 1540 -758 0 c-417 0
-762 -3 -765 -7z"/>
<path d="M15770 3240 l0 -1540 240 0 240 0 2 1318 3 1317 273 3 272 2 0 -1320
0 -1320 250 0 250 0 -2 1538 -3 1537 -762 3 -763 2 0 -1540z"/>
</g>
</svg>
