<svg xmlns="http://www.w3.org/2000/svg" viewBox="0 0 1784 972">
  <defs>
    <style>
      .cls-1 {
        fill: #26292d;
      }

      .cls-2 {
        fill: #c53437;
      }

      .cls-3 {
        fill: #bf231e;
      }

      .cls-4 {
        fill: #901411;
      }

      .cls-5 {
        fill: #26282d;
      }

      .cls-6 {
        fill: #212122;
      }

      .cls-7 {
        fill: #111314;
      }
    </style>
  </defs>
  <g id="Слой_2" data-name="Слой 2">
    <g id="Слой_8" data-name="Слой 8">
      <g>
        <g>
          <path class="cls-1" d="M1016.84,299.24v40.91q0,37.39-18.26,57.41t-53.89,20q-35.62,0-53.89-20t-18.25-57.41V180q0-37.4,18.25-57.41t53.89-20q35.64,0,53.89,20T1016.84,180v29.91H971.09V177q0-16.71-6.82-23.54T946,146.6q-11.44,0-18.25,6.81T920.94,177V343.23q0,16.72,6.82,23.32t18.25,6.6q11.44,0,18.26-6.6t6.82-23.32v-44Z"/>
          <path class="cls-1" d="M1097.33,414.06h-49.71V106.12h43.11V290.44l49.71-184.32h60.71V414.06H1157.6V191Z"/>
          <path class="cls-1" d="M1223.14,106.12h149.57v44h-50.59V414.06h-48.39V150.12h-50.59Z"/>
          <path class="cls-1" d="M1443.09,235.9h66.42v44h-66.42v90.18h83.58v44h-132V106.12h132v44h-83.58Z"/>
          <path class="cls-1" d="M1618.6,291.32l-14.95,28.16v94.58h-48.39V106.12h48.39V240.29l64.22-134.17h47.51l-67.3,137.26,67.3,170.68h-49.71Z"/>
          <path class="cls-2" d="M1784,367.43v46.63h-46.63V367.43Z"/>
          <path class="cls-1" d="M1016.84,688.24v40.91q0,37.4-18.26,57.41t-53.89,20q-35.62,0-53.89-20t-18.25-57.41V569q0-37.39,18.25-57.41t53.89-20q35.64,0,53.89,20T1016.84,569v29.91H971.09V566q0-16.71-6.82-23.54T946,535.6q-11.44,0-18.25,6.81T920.94,566V732.23q0,16.72,6.82,23.32t18.25,6.6q11.44,0,18.26-6.6t6.82-23.32v-44Z"/>
          <path class="cls-1" d="M1034.43,495.12H1184v44h-50.58V803.06H1085V539.12h-50.59Z"/>
          <path class="cls-1" d="M1277.25,495.12q36.51,0,54.33,19.36t17.81,56.75v40q0,37.4-17.81,56.75t-54.33,19.35h-22.88v115.7H1206V495.12Zm-22.88,44V643.37h22.88q11.43,0,17.59-6.16t6.16-22.87V568.15q0-16.71-6.16-22.88t-17.59-6.15Z"/>
          <path class="cls-1" d="M1367,569q0-37.39,18.92-57.41t54.55-20q35.63,0,54.55,20T1513.91,569V729.15q0,37.4-18.91,57.41t-54.55,20q-35.64,0-54.55-20T1367,729.15Zm48.39,163.2q0,16.72,6.82,23.54t18.26,6.82q11.43,0,18.25-6.82t6.82-23.54V566q0-16.71-6.82-23.54t-18.25-6.81q-11.45,0-18.26,6.81T1415.37,566Z"/>
          <path class="cls-1" d="M1594.41,803.06h-49.7V495.12h43.11V679.44l49.7-184.32h60.71V803.06h-43.55V580Zm80.95-361.16V478H1568.9V441.9Z"/>
        </g>
        <g>
          <polygon class="cls-2" points="734.1 109.02 516.07 218.03 298.04 109.02 516.07 0 734.1 109.02"/>
          <polygon class="cls-3" points="734.1 242.03 516.07 351.05 516.07 218.03 734.1 109.02 734.1 242.03"/>
          <polygon class="cls-4" points="298.04 242.03 516.07 351.05 516.07 218.03 298.04 109.02 298.04 242.03"/>
          <polygon class="cls-5" points="434.45 258.66 217.03 367.68 0 258.66 217.03 149.65 434.45 258.66"/>
          <polygon class="cls-6" points="434.45 535.08 217.03 645.09 217.03 367.68 434.45 258.66 434.45 535.08"/>
          <polygon class="cls-7" points="0 712.73 217.03 822.12 217.03 367.68 0 258.66 0 712.73"/>
          <polygon class="cls-6" points="734.05 863.01 515.46 972 515.46 794.97 734.05 685.96 734.05 863.01"/>
          <polygon class="cls-7" points="217.03 822.12 515.46 972 515.46 794.97 217.03 645.09 217.03 822.12"/>
          <polygon class="cls-1" points="734.05 685.96 515.46 794.97 217.03 645.09 434.45 535.08 734.05 685.96"/>
        </g>
      </g>
    </g>
  </g>
</svg>
