<svg xmlns="http://www.w3.org/2000/svg" viewBox="0 0 1784 972">
  <defs>
    <style>
      .cls-1 {
        fill: #26292d;
      }

      .cls-2 {
        fill: #306dcf;
      }

      .cls-3 {
        fill: #275ec0;
      }

      .cls-4 {
        fill: #173c9b;
      }

      .cls-5 {
        fill: #26282d;
      }

      .cls-6 {
        fill: #212122;
      }

      .cls-7 {
        fill: #111314;
      }
    </style>
  </defs>
  <g id="Слой_2" data-name="Слой 2">
    <g id="Слой_10" data-name="Слой 10">
      <g>
        <g>
          <path class="cls-1" d="M1016.84,299.24v40.91q0,37.39-18.26,57.41t-53.89,20q-35.62,0-53.89-20t-18.25-57.41V180q0-37.38,18.25-57.41t53.89-20q35.64,0,53.89,20T1016.84,180v29.91H971.09V177q0-16.71-6.82-23.54T946,146.6q-11.44,0-18.25,6.81T920.94,177V343.23q0,16.72,6.82,23.32t18.25,6.6q11.44,0,18.26-6.6t6.82-23.32v-44Z"/>
          <path class="cls-1" d="M1097.33,414.06h-49.71V106.12h43.12V290.45l49.7-184.33h60.71V414.06H1157.6V191Z"/>
          <path class="cls-1" d="M1223.14,106.12h149.57v44h-50.59V414.06h-48.39V150.12h-50.59Z"/>
          <path class="cls-1" d="M1443.09,235.9h66.42v44h-66.42v90.18h83.58v44h-132V106.12h132v44h-83.58Z"/>
          <path class="cls-1" d="M1618.6,291.32l-14.95,28.16v94.58h-48.39V106.12h48.39V240.29l64.22-134.17h47.51l-67.3,137.25,67.3,170.69h-49.71Z"/>
          <path class="cls-2" d="M1784,367.43v46.63h-46.63V367.43Z"/>
          <path class="cls-1" d="M1012.88,539.12H956.57V726.51q0,23.32-5.72,38.28t-15.4,23.53a55.78,55.78,0,0,1-22.21,12.1,96.29,96.29,0,0,1-26.17,3.52H875.19a82.17,82.17,0,0,1-11.44-.88v-44a76.51,76.51,0,0,0,8.36.44h8.36q11.43,0,19.57-5.72T908.18,730V495.12h153.09V803.06h-48.39Z"/>
          <path class="cls-1" d="M1252.62,803.06h-48.83l-8.35-55.87h-59.39l-8.36,55.87h-44.43l49.27-307.94h70.82ZM1142.21,705.4h46.63l-23.32-155.73Z"/>
          <path class="cls-1" d="M1323,610.82h22.87q36.51,0,54.33,19.36T1418,686.92v40q0,37.39-17.82,56.75t-54.33,19.36h-71.26V495.12h128v44H1323Zm22.87,148.25q11.44,0,17.6-6.16t6.16-22.88V683.84q0-16.71-6.16-22.87t-17.6-6.16H1323V759.07Z"/>
        </g>
        <g>
          <polygon class="cls-2" points="734.1 109.02 516.07 218.03 298.04 109.02 516.07 0 734.1 109.02"/>
          <polygon class="cls-3" points="734.1 242.03 516.07 351.05 516.07 218.03 734.1 109.02 734.1 242.03"/>
          <polygon class="cls-4" points="298.04 242.03 516.07 351.05 516.07 218.03 298.04 109.02 298.04 242.03"/>
          <polygon class="cls-5" points="434.45 258.66 217.03 367.68 0 258.66 217.03 149.65 434.45 258.66"/>
          <polygon class="cls-6" points="434.45 535.08 217.03 645.09 217.03 367.68 434.45 258.66 434.45 535.08"/>
          <polygon class="cls-7" points="0 712.73 217.03 822.12 217.03 367.68 0 258.66 0 712.73"/>
          <polygon class="cls-6" points="734.05 863.01 515.46 972 515.46 794.97 734.05 685.96 734.05 863.01"/>
          <polygon class="cls-7" points="217.03 822.12 515.46 972 515.46 794.97 217.03 645.09 217.03 822.12"/>
          <polygon class="cls-1" points="734.05 685.96 515.46 794.97 217.03 645.09 434.45 535.08 734.05 685.96"/>
        </g>
      </g>
    </g>
  </g>
</svg>
