<?xml version="1.0" standalone="no"?>
<!DOCTYPE svg PUBLIC "-//W3C//DTD SVG 20010904//EN"
 "http://www.w3.org/TR/2001/REC-SVG-20010904/DTD/svg10.dtd">
<svg version="1.0" xmlns="http://www.w3.org/2000/svg"
 width="1785.000000pt" height="973.000000pt" viewBox="0 0 1785.000000 973.000000"
 preserveAspectRatio="xMidYMid meet">

<g transform="translate(0.000000,973.000000) scale(0.100000,-0.100000)"
fill="#000000" stroke="none">
<path d="M4078 9184 l-1088 -544 0 -405 0 -405 -406 203 -406 202 -1084 -545
-1084 -545 0 -2272 0 -2271 543 -275 c298 -151 1458 -735 2577 -1297 l2034
-1023 1093 547 1093 546 -2 887 -3 886 -1495 753 -1495 753 -3 1121 c-1 748 1
1120 8 1120 6 0 190 -90 410 -200 l400 -200 1090 545 1090 545 0 665 0 665
-1090 545 c-599 300 -1091 545 -1092 544 -2 0 -492 -245 -1090 -545z"/>
<path d="M9250 8685 c-253 -56 -410 -207 -480 -457 -38 -137 -42 -254 -37
-1178 4 -965 2 -937 63 -1098 50 -134 157 -258 273 -317 216 -109 577 -106
781 7 163 90 260 235 306 459 15 68 18 137 18 359 l1 275 -227 3 -226 2 -4
-277 c-3 -198 -8 -288 -18 -313 -34 -91 -102 -139 -207 -148 -86 -7 -147 12
-199 62 -77 75 -74 29 -74 1066 0 1012 -2 983 63 1057 44 51 98 73 178 73 118
0 185 -38 228 -129 25 -54 26 -63 29 -278 l4 -223 229 0 229 0 0 168 c0 92 -5
210 -10 262 -35 332 -191 537 -465 615 -84 24 -365 30 -455 10z"/>
<path d="M10480 7130 l0 -1540 252 2 252 3 295 1094 296 1095 3 -1097 2 -1097
220 0 220 0 0 1540 0 1540 -304 0 -303 0 -30 -107 c-16 -60 -126 -466 -244
-904 l-214 -796 -3 903 -2 904 -220 0 -220 0 0 -1540z"/>
<path d="M12240 8450 l0 -220 253 -2 252 -3 3 -1317 2 -1318 240 0 240 0 0
1320 0 1320 255 0 255 0 0 220 0 220 -750 0 -750 0 0 -220z"/>
<path d="M13950 7130 l0 -1540 660 0 660 0 0 220 0 220 -415 0 -415 0 0 450 0
450 330 0 330 0 0 220 0 220 -330 0 -330 0 0 430 0 430 415 0 415 0 0 220 0
220 -660 0 -660 0 0 -1540z"/>
<path d="M15560 7130 l0 -1540 240 0 240 0 0 466 0 467 76 145 c50 93 79 140
84 131 4 -8 109 -283 235 -611 l228 -598 250 0 c233 0 249 1 242 18 -3 9 -155
393 -336 853 l-329 835 335 683 c184 376 335 685 335 687 0 2 -107 4 -237 4
l-238 0 -315 -661 c-173 -363 -318 -663 -322 -665 -5 -3 -8 294 -8 660 l0 666
-240 0 -240 0 0 -1540z"/>
<path d="M17380 5820 l0 -230 235 0 235 0 0 230 0 230 -235 0 -235 0 0 -230z"/>
<path d="M9088 3548 c-3 -1163 -4 -1235 -21 -1273 -46 -101 -124 -137 -299
-139 l-118 -1 0 -217 0 -217 36 -7 c71 -13 344 3 427 25 177 47 301 147 376
304 80 168 75 85 81 1262 l5 1050 280 0 280 0 3 -1317 2 -1318 240 0 240 0 0
1540 0 1540 -765 0 -765 0 -2 -1232z"/>
<path d="M11330 4770 c0 -12 -478 -3003 -486 -3043 l-6 -27 224 0 224 0 38
258 c21 141 40 267 43 280 l5 22 293 0 c271 0 294 -1 299 -17 2 -10 22 -136
43 -280 l38 -263 242 0 c200 0 243 2 243 14 0 15 -477 3007 -485 3044 l-5 22
-355 0 c-230 0 -355 -4 -355 -10z m450 -1319 c61 -404 110 -742 110 -753 0
-17 -13 -18 -231 -18 l-231 0 6 28 c3 15 53 344 111 732 112 757 116 783 122
760 2 -8 53 -345 113 -749z"/>
<path d="M12750 3239 l0 -1540 448 3 c422 4 451 5 525 26 245 68 386 225 444
493 15 72 18 133 18 439 0 306 -3 367 -18 440 -58 266 -194 419 -439 491 -61
18 -107 22 -280 26 l-208 5 0 359 0 359 395 0 395 0 0 220 0 220 -640 0 -640
0 0 -1541z m852 -91 c33 -20 53 -41 70 -75 23 -47 23 -54 26 -391 3 -397 0
-425 -67 -485 -53 -48 -92 -57 -253 -57 l-138 0 0 521 0 521 158 -4 c150 -3
159 -4 204 -30z"/>
</g>
</svg>
