<svg xmlns="http://www.w3.org/2000/svg" viewBox="0 0 1786.82 972">
  <defs>
    <style>
      .cls-1 {
        fill: #c53437;
      }

      .cls-2 {
        fill: #bf231e;
      }

      .cls-3 {
        fill: #901411;
      }

      .cls-4 {
        fill: #26282d;
      }

      .cls-5 {
        fill: #212122;
      }

      .cls-6 {
        fill: #111314;
      }

      .cls-7 {
        fill: #26292d;
      }

      .cls-8 {
        fill: #fff;
      }
    </style>
  </defs>
  <g id="Слой_2" data-name="Слой 2">
    <g id="Слой_7" data-name="Слой 7">
      <g>
        <g>
          <polygon class="cls-1" points="734.1 109.02 516.07 218.03 298.04 109.02 516.07 0 734.1 109.02"/>
          <polygon class="cls-2" points="734.1 242.03 516.07 351.05 516.07 218.03 734.1 109.02 734.1 242.03"/>
          <polygon class="cls-3" points="298.04 242.03 516.07 351.05 516.07 218.03 298.04 109.02 298.04 242.03"/>
          <polygon class="cls-4" points="434.45 258.66 217.03 367.68 0 258.66 217.03 149.65 434.45 258.66"/>
          <polygon class="cls-5" points="434.45 535.08 217.03 645.09 217.03 367.68 434.45 258.66 434.45 535.08"/>
          <polygon class="cls-6" points="0 712.73 217.03 822.12 217.03 367.68 0 258.66 0 712.73"/>
          <polygon class="cls-5" points="734.05 863.01 515.46 972 515.46 794.97 734.05 685.96 734.05 863.01"/>
          <polygon class="cls-6" points="217.03 822.12 515.46 972 515.46 794.97 217.03 645.09 217.03 822.12"/>
          <polygon class="cls-7" points="734.05 685.96 515.46 794.97 217.03 645.09 434.45 535.08 734.05 685.96"/>
        </g>
        <g>
          <path class="cls-8" d="M1019.65,299v40.91q0,37.39-18.25,57.41t-53.89,20q-35.64,0-53.89-20t-18.26-57.41V179.76q0-37.38,18.26-57.4t53.89-20q35.63,0,53.89,20t18.25,57.4v29.92H973.9v-33q0-16.71-6.82-23.53t-18.25-6.82q-11.45,0-18.26,6.82t-6.82,23.53V343q0,16.72,6.82,23.31t18.26,6.6q11.43,0,18.25-6.6T973.9,343V299Z"/>
          <path class="cls-8" d="M1100.15,413.79h-49.71V105.86h43.11V290.18l49.71-184.32H1204V413.79h-43.56v-223Z"/>
          <path class="cls-8" d="M1226,105.86h149.57v44h-50.59V413.79h-48.39V149.85H1226Z"/>
          <path class="cls-8" d="M1445.9,235.63h66.43v44H1445.9V369.8h83.58v44h-132V105.86h132v44H1445.9Z"/>
          <path class="cls-8" d="M1621.42,291.06l-15,28.15v94.58h-48.39V105.86h48.39V240l64.23-134.17h47.51l-67.31,137.25,67.31,170.68h-49.71Z"/>
          <path class="cls-1" d="M1786.82,367.16v46.63h-46.63V367.16Z"/>
          <path class="cls-8" d="M1019.65,688v40.91q0,37.4-18.25,57.41t-53.89,20q-35.64,0-53.89-20t-18.26-57.41V568.76q0-37.38,18.26-57.4t53.89-20q35.63,0,53.89,20t18.25,57.4v29.92H973.9v-33q0-16.71-6.82-23.53t-18.25-6.82q-11.45,0-18.26,6.82t-6.82,23.53V732q0,16.72,6.82,23.31t18.26,6.6q11.43,0,18.25-6.6T973.9,732V688Z"/>
          <path class="cls-8" d="M1037.24,494.86h149.57v44h-50.59V802.79h-48.39V538.85h-50.59Z"/>
          <path class="cls-8" d="M1280.06,494.86q36.51,0,54.33,19.35T1352.21,571v40q0,37.39-17.82,56.75t-54.33,19.36h-22.87V802.79H1208.8V494.86Zm-22.87,44V643.11h22.87q11.45,0,17.6-6.16t6.16-22.88V567.88q0-16.71-6.16-22.87t-17.6-6.16Z"/>
          <path class="cls-8" d="M1369.8,568.76q0-37.38,18.92-57.4t54.54-20q35.64,0,54.55,20t18.92,57.4V728.89q0,37.4-18.92,57.41t-54.55,20q-35.62,0-54.54-20t-18.92-57.41ZM1418.19,732q0,16.72,6.82,23.53t18.25,6.82q11.45,0,18.26-6.82t6.82-23.53V565.68q0-16.71-6.82-23.53t-18.26-6.82q-11.44,0-18.25,6.82t-6.82,23.53Z"/>
          <path class="cls-8" d="M1597.23,802.79h-49.71V494.86h43.11V679.18l49.71-184.32h60.71V802.79H1657.5v-223Zm80.94-361.16V477.7H1571.71V441.63Z"/>
        </g>
      </g>
    </g>
  </g>
</svg>
